# Blender v2.93.4 OBJ File: ''
# www.blender.org
mtllib Cube (1).mtl
o Cube_(1)
v -0.500000 -0.227068 0.176899
v -0.500000 -0.227068 0.159059
v -0.478602 -0.250000 0.159059
v -0.478602 -0.250000 0.176899
v -0.478602 -0.274536 0.159059
v -0.478602 -0.274536 0.176899
v -0.481801 -0.297739 0.159059
v -0.476891 -0.297739 0.176899
v -0.500000 -0.227068 0.138748
v -0.478602 -0.250000 0.138748
v -0.478602 -0.274536 0.138748
v -0.500000 -0.297739 0.138748
v -0.500000 -0.227068 0.500000
v -0.500000 -0.227068 0.199746
v -0.478602 -0.250000 0.199746
v -0.478602 -0.250000 0.500000
v -0.478602 -0.274536 0.199746
v -0.478602 -0.274536 0.500000
v -0.503102 -0.297739 0.199746
v -0.500000 -0.297739 0.500000
v -0.476891 -0.227068 -0.165935
v -0.476891 -0.227068 -0.185796
v -0.478602 -0.250000 -0.185796
v -0.478602 -0.250000 -0.165935
v -0.478602 -0.274536 -0.185796
v -0.478602 -0.274536 -0.165935
v -0.500000 -0.297739 -0.185796
v -0.500000 -0.297739 -0.165935
v -0.478602 0.021374 -0.500000
v -0.478602 0.000000 -0.500000
v -0.500000 0.042057 -0.500000
v -0.500000 -0.021320 -0.500000
v -0.500000 -0.227068 -0.203421
v -0.478602 -0.250000 -0.203421
v -0.500000 -0.227068 -0.500000
v -0.478602 -0.250000 -0.500000
v -0.478602 -0.274536 -0.203421
v -0.478602 -0.274536 -0.500000
v -0.500000 -0.297739 -0.203421
v -0.500000 -0.297739 -0.500000
v -0.500000 -0.227068 -0.148358
v -0.478602 -0.250000 -0.148358
v -0.478602 -0.274536 -0.148358
v -0.500000 -0.297739 -0.148358
v -0.476891 -0.486739 0.176899
v -0.481801 -0.486739 0.159059
v -0.481801 -0.500000 0.159059
v -0.476891 -0.500000 0.176899
v -0.500000 -0.486739 0.138748
v -0.483400 -0.500000 0.138748
v -0.503102 -0.486739 0.199746
v -0.500000 -0.486739 0.500000
v -0.486502 -0.500000 0.199746
v -0.483400 -0.500000 0.500000
v -0.500000 -0.486739 -0.185796
v -0.500000 -0.486739 -0.165935
v -0.483400 -0.500000 -0.185796
v -0.483400 -0.500000 -0.165935
v -0.500000 -0.486739 -0.203421
v -0.483400 -0.500000 -0.203421
v -0.500000 -0.486739 -0.500000
v -0.483400 -0.500000 -0.500000
v -0.500000 -0.486739 -0.148358
v -0.483400 -0.500000 -0.148358
v 0.010699 0.021374 -0.500000
v 0.010699 0.000000 -0.500000
v 0.000000 0.042057 -0.500000
v 0.000000 -0.021320 -0.500000
v 0.010699 -0.250000 0.500000
v 0.000000 -0.227068 0.500000
v 0.000000 -0.227068 -0.500000
v 0.010699 -0.250000 -0.500000
v 0.010699 -0.274536 0.500000
v 0.010699 -0.274536 -0.500000
v 0.000000 -0.297739 0.500000
v 0.000000 -0.297739 -0.500000
v 0.009099 -0.500000 0.159059
v 0.011554 -0.500000 0.176899
v 0.008300 -0.500000 0.138748
v 0.006749 -0.500000 0.199746
v 0.008300 -0.500000 0.500000
v 0.008300 -0.500000 -0.165935
v 0.008300 -0.500000 -0.185796
v 0.008300 -0.500000 -0.203421
v 0.008300 -0.500000 -0.500000
v 0.008300 -0.500000 -0.148358
v 0.000000 -0.486739 0.500000
v 0.000000 -0.486739 -0.500000
v 0.478602 -0.250000 0.176899
v 0.478602 -0.250000 0.159059
v 0.500000 -0.227068 0.159059
v 0.500000 -0.227068 0.176899
v 0.478602 -0.274536 0.176899
v 0.478602 -0.274536 0.159059
v 0.481801 -0.297739 0.159059
v 0.476891 -0.297739 0.176899
v 0.478602 -0.250000 0.138748
v 0.500000 -0.227068 0.138748
v 0.478602 -0.274536 0.138748
v 0.500000 -0.297739 0.138748
v 0.478602 -0.250000 0.199746
v 0.500000 -0.227068 0.199746
v 0.500000 -0.227068 0.500000
v 0.478602 -0.250000 0.500000
v 0.478602 -0.274536 0.199746
v 0.478602 -0.274536 0.500000
v 0.503102 -0.297739 0.199746
v 0.500000 -0.297739 0.500000
v 0.478602 -0.250000 -0.185796
v 0.476891 -0.227068 -0.185796
v 0.476891 -0.227068 -0.165935
v 0.478602 -0.250000 -0.165935
v 0.478602 -0.274536 -0.185796
v 0.478602 -0.274536 -0.165935
v 0.500000 -0.297739 -0.185796
v 0.500000 -0.297739 -0.165935
v 0.478602 0.000000 -0.500000
v 0.478602 0.021374 -0.500000
v 0.500000 0.042057 -0.500000
v 0.500000 -0.021320 -0.500000
v 0.478602 -0.250000 -0.203421
v 0.500000 -0.227068 -0.203421
v 0.478602 -0.250000 -0.500000
v 0.500000 -0.227068 -0.500000
v 0.478602 -0.274536 -0.203421
v 0.478602 -0.274536 -0.500000
v 0.500000 -0.297739 -0.203421
v 0.500000 -0.297739 -0.500000
v 0.478602 -0.250000 -0.148358
v 0.500000 -0.227068 -0.148358
v 0.478602 -0.274536 -0.148358
v 0.500000 -0.297739 -0.148358
v 0.481801 -0.500000 0.159059
v 0.481801 -0.486739 0.159059
v 0.476891 -0.486739 0.176899
v 0.476891 -0.500000 0.176899
v 0.483400 -0.500000 0.138748
v 0.500000 -0.486739 0.138748
v 0.503102 -0.486739 0.199746
v 0.500000 -0.486739 0.500000
v 0.486502 -0.500000 0.199746
v 0.483400 -0.500000 0.500000
v 0.500000 -0.486739 -0.165935
v 0.500000 -0.486739 -0.185796
v 0.483400 -0.500000 -0.165935
v 0.483400 -0.500000 -0.185796
v 0.483400 -0.500000 -0.203421
v 0.500000 -0.486739 -0.203421
v 0.483400 -0.500000 -0.500000
v 0.500000 -0.486739 -0.500000
v 0.483400 -0.500000 -0.148358
v 0.500000 -0.486739 -0.148358
v -0.010699 0.000000 -0.500000
v -0.010699 0.021374 -0.500000
v -0.010699 -0.250000 0.500000
v -0.010699 -0.250000 -0.500000
v -0.010699 -0.274536 0.500000
v -0.010699 -0.274536 -0.500000
v -0.011554 -0.500000 0.176899
v -0.009099 -0.500000 0.159059
v -0.008300 -0.500000 0.138748
v -0.006749 -0.500000 0.199746
v -0.008300 -0.500000 0.500000
v -0.008300 -0.500000 -0.165935
v -0.008300 -0.500000 -0.185796
v -0.008300 -0.500000 -0.203421
v -0.008300 -0.500000 -0.500000
v -0.008300 -0.500000 -0.148358
v 0.500000 -0.135312 0.159059
v 0.500000 -0.021320 -0.264507
v 0.478602 0.000000 -0.343728
v 0.476891 -0.047849 -0.165935
v 0.500000 -0.146262 0.199746
v 0.476891 -0.042503 -0.185796
v 0.500000 -0.037760 -0.203421
v 0.500000 -0.140114 0.176899
v 0.500000 -0.052579 -0.148358
v 0.478602 0.021374 -0.423149
v 0.500000 -0.129846 0.138748
v -0.500000 -0.135313 0.159059
v -0.500000 -0.140114 0.176899
v -0.500000 -0.037760 -0.203421
v -0.500000 -0.129846 0.138748
v -0.478602 0.000000 -0.343729
v -0.500000 -0.021320 -0.264508
v -0.500000 -0.052579 -0.148358
v -0.476891 -0.042503 -0.185796
v -0.478602 0.021374 -0.423150
v -0.476891 -0.047849 -0.165935
v -0.500000 -0.146262 0.199746
vt 0.937500 0.370006
vt 0.937500 0.370006
vt 0.950373 0.375000
vt 0.950373 0.375000
vt 0.967068 0.500000
vt 0.967068 0.500000
vt 0.983805 0.562500
vt 0.983805 0.562500
vt 1.000000 0.593750
vt 1.000000 0.593750
vt 0.875000 0.368565
vt 0.875000 0.368565
vt 0.750000 0.366941
vt 0.750000 0.366941
vt 0.718750 0.365505
vt 0.718750 0.365505
vt 0.687500 0.342033
vt 0.687500 0.342033
vt 0.625000 0.340373
vt 0.625000 0.340373
vt 0.500000 0.338914
vt 0.500000 0.338914
vt 0.250000 0.337046
vt 0.250000 0.337046
vt 0.000000 0.312500
vt 0.000000 0.312500
vt 0.500000 0.312500
vt 0.625000 0.312500
vt 0.625000 0.250000
vt 0.500000 0.250000
vt 0.625000 0.125000
vt 0.500000 0.125000
vt 0.625000 0.062500
vt 0.500000 0.062500
vt 0.687500 0.312500
vt 0.687500 0.250000
vt 0.687500 0.125000
vt 0.687500 0.062500
vt 0.250000 0.312500
vt 0.250000 0.250000
vt 0.000000 0.250000
vt 0.250000 0.125000
vt 0.000000 0.125000
vt 0.250000 0.062500
vt 0.000000 0.062500
vt 0.750000 0.312500
vt 0.875000 0.312500
vt 0.875000 0.250000
vt 0.750000 0.250000
vt 0.875000 0.125000
vt 0.750000 0.125000
vt 0.875000 0.062500
vt 0.750000 0.062500
vt 1.000000 0.375000
vt 1.000000 0.500000
vt 0.937500 0.312500
vt 0.937500 0.250000
vt 1.000000 0.312500
vt 1.000000 0.250000
vt 0.937500 0.125000
vt 1.000000 0.125000
vt 0.937500 0.062500
vt 1.000000 0.062500
vt 0.718750 0.312500
vt 0.718750 0.250000
vt 0.718750 0.125000
vt 0.718750 0.062500
vt 0.500000 0.031250
vt 0.625000 0.031250
vt 0.625000 0.000000
vt 0.500000 0.000000
vt 0.687500 0.031250
vt 0.687500 0.000000
vt 0.250000 0.031250
vt 0.000000 0.031250
vt 0.250000 0.000000
vt 0.000000 0.000000
vt 0.875000 0.031250
vt 0.750000 0.031250
vt 0.875000 0.000000
vt 0.750000 0.000000
vt 0.937500 0.031250
vt 0.937500 0.000000
vt 1.000000 0.031250
vt 1.000000 0.000000
vt 0.718750 0.031250
vt 0.718750 0.000000
vt 1.000000 0.437500
vt 0.500000 0.437500
vt 0.500000 0.500000
vt 0.500000 0.406250
vt 1.000000 0.406250
vt 0.500000 0.625000
vt 1.000000 0.625000
vt 1.000000 0.312500
vt 1.000000 0.250000
vt 0.500000 0.250000
vt 0.500000 0.312500
vt 0.500000 0.687500
vt 0.500000 0.750000
vt 1.000000 0.750000
vt 1.000000 0.687500
vt 1.000000 0.125000
vt 0.500000 0.125000
vt 0.500000 0.875000
vt 1.000000 0.875000
vt 1.000000 0.062500
vt 0.500000 0.062500
vt 0.500000 0.937500
vt 1.000000 0.937500
vt 1.000000 0.500000
vt 1.000000 0.375000
vt 0.500000 0.375000
vt 0.500000 0.500000
vt 1.000000 0.312500
vt 0.500000 0.312500
vt 0.500000 0.750000
vt 1.000000 0.750000
vt 1.000000 1.000000
vt 0.500000 1.000000
vt 0.500000 0.250000
vt 1.000000 0.250000
vt 1.000000 0.125000
vt 0.500000 0.125000
vt 0.500000 0.062500
vt 1.000000 0.062500
vt 0.500000 0.000000
vt 0.500000 0.281250
vt 1.000000 0.281250
vt 1.000000 0.031250
vt 1.000000 0.000000
vt 0.500000 0.000000
vt 0.500000 0.031250
vt 0.500000 0.968750
vt 0.500000 1.000000
vt 1.000000 1.000000
vt 1.000000 0.968750
vt 0.500000 0.250000
vt 0.625000 0.250000
vt 0.625000 0.312500
vt 0.500000 0.312500
vt 0.500000 0.125000
vt 0.625000 0.125000
vt 0.625000 0.062500
vt 0.500000 0.062500
vt 0.687500 0.250000
vt 0.687500 0.312500
vt 0.687500 0.125000
vt 0.687500 0.062500
vt 0.250000 0.250000
vt 0.250000 0.312500
vt 0.000000 0.250000
vt 0.250000 0.125000
vt 0.000000 0.125000
vt 0.250000 0.062500
vt 0.000000 0.062500
vt 0.875000 0.250000
vt 0.875000 0.312500
vt 0.750000 0.312500
vt 0.750000 0.250000
vt 0.875000 0.125000
vt 0.750000 0.125000
vt 0.875000 0.062500
vt 0.750000 0.062500
vt 0.937500 0.250000
vt 0.937500 0.312500
vt 1.000000 0.250000
vt 1.000000 0.312500
vt 1.000000 0.375000
vt 0.937500 0.125000
vt 1.000000 0.125000
vt 0.937500 0.062500
vt 1.000000 0.062500
vt 0.718750 0.250000
vt 0.718750 0.312500
vt 0.718750 0.125000
vt 0.718750 0.062500
vt 0.625000 0.000000
vt 0.625000 0.031250
vt 0.500000 0.031250
vt 0.500000 0.000000
vt 0.687500 0.000000
vt 0.687500 0.031250
vt 0.250000 0.031250
vt 0.000000 0.031250
vt 0.250000 0.000000
vt 0.000000 0.000000
vt 0.750000 0.031250
vt 0.875000 0.031250
vt 0.750000 0.000000
vt 0.875000 0.000000
vt 0.937500 0.000000
vt 0.937500 0.031250
vt 1.000000 0.000000
vt 1.000000 0.031250
vt 0.718750 0.000000
vt 0.718750 0.031250
vt 1.000000 0.500000
vt 0.500000 0.500000
vt 0.500000 0.437500
vt 1.000000 0.437500
vt 1.000000 0.406250
vt 1.000000 0.625000
vt 0.500000 0.250000
vt 1.000000 0.250000
vt 1.000000 0.312500
vt 1.000000 0.687500
vt 1.000000 0.750000
vt 0.500000 0.750000
vt 0.500000 0.125000
vt 1.000000 0.125000
vt 1.000000 0.875000
vt 0.500000 0.875000
vt 1.000000 0.062500
vt 1.000000 0.937500
vt 0.500000 0.500000
vt 0.500000 0.375000
vt 1.000000 0.375000
vt 1.000000 0.500000
vt 0.500000 0.312500
vt 1.000000 0.312500
vt 0.500000 0.750000
vt 1.000000 0.750000
vt 0.500000 1.000000
vt 1.000000 1.000000
vt 1.000000 0.125000
vt 1.000000 0.250000
vt 0.500000 0.250000
vt 0.500000 0.125000
vt 1.000000 0.062500
vt 0.500000 0.062500
vt 0.500000 0.000000
vt 1.000000 0.281250
vt 0.500000 0.281250
vt 0.500000 0.000000
vt 1.000000 0.000000
vt 1.000000 0.031250
vt 1.000000 0.968750
vt 1.000000 1.000000
vt 0.500000 1.000000
vt 1.000000 0.562500
vt 1.000000 0.562500
vn -0.0000 0.9656 0.2599
vn -0.7311 -0.6822 -0.0000
vn -1.0000 0.0000 -0.0000
vn -0.9973 -0.0736 -0.0000
vn -0.9906 0.0295 0.1334
vn -0.9557 0.1318 0.2631
vn -0.8216 0.4342 0.3695
vn -0.7351 0.6779 0.0000
vn -0.7409 0.1021 0.6638
vn -0.7118 0.7024 0.0036
vn -0.6876 0.7260 0.0071
vn -0.6877 0.7260 0.0000
vn -0.7986 0.4026 -0.4474
vn -0.6563 -0.0484 -0.7529
vn -0.7986 0.4027 -0.4474
vn -0.9972 0.0744 -0.0000
vn -0.7058 0.7084 0.0000
vn -0.6058 0.0452 0.7943
vn -0.7956 -0.3791 0.4726
vn -0.7956 -0.3791 0.4727
vn -0.6048 0.0451 -0.7951
vn -0.7951 -0.3792 -0.4733
vn -0.9641 0.0000 0.2654
vn -0.8669 -0.3835 0.3186
vn -0.5447 -0.6819 0.4881
vn -0.9969 0.0000 0.0784
vn -0.7448 -0.0000 0.6673
vn -0.9999 0.0000 0.0103
vn -0.6241 -0.7813 0.0064
vn -0.5075 -0.6353 -0.5822
vn -0.7766 -0.3452 -0.5270
vn -0.9218 -0.0000 -0.3878
vn -0.6571 0.0000 -0.7538
vn -0.6241 -0.7813 0.0000
vn 0.0000 0.0000 -1.0000
vn 0.0000 0.0000 1.0000
vn 0.0000 -1.0000 -0.0000
vn 0.7311 -0.6822 -0.0000
vn 1.0000 0.0000 0.0000
vn 0.9557 0.1318 0.2631
vn 0.9906 0.0296 0.1335
vn 0.9973 -0.0736 -0.0000
vn 0.9906 0.0295 0.1334
vn 0.7409 0.1021 0.6638
vn 0.8216 0.4342 0.3695
vn 0.7351 0.6779 0.0000
vn 0.6876 0.7260 0.0071
vn 0.7118 0.7024 0.0036
vn 0.7118 0.7023 0.0035
vn 0.6563 -0.0484 -0.7529
vn 0.7986 0.4026 -0.4474
vn 0.6877 0.7260 0.0000
vn 0.7986 0.4027 -0.4474
vn 0.9972 0.0744 -0.0000
vn 0.7956 -0.3791 0.4726
vn 0.6058 0.0452 0.7943
vn 0.7956 -0.3791 0.4727
vn 0.6064 -0.0000 0.7951
vn 0.7951 -0.3792 -0.4733
vn 0.6048 0.0451 -0.7951
vn 0.6054 0.0000 -0.7959
vn 0.9641 0.0000 0.2654
vn 0.9969 0.0000 0.0784
vn 0.8669 -0.3835 0.3186
vn 0.5447 -0.6819 0.4881
vn 0.7448 -0.0000 0.6673
vn 0.9999 0.0000 0.0103
vn 0.6241 -0.7813 0.0064
vn 0.9218 -0.0000 -0.3878
vn 0.7766 -0.3452 -0.5270
vn 0.5075 -0.6353 -0.5822
vn 0.6571 0.0000 -0.7538
vn 0.6241 -0.7813 0.0000
vn 0.7058 0.7084 0.0000
vn 0.6950 -0.7190 0.0000
vn -0.6950 -0.7190 0.0000
vn -0.6054 0.0000 -0.7959
vn -0.6064 -0.0000 0.7951
usemtl Bridge
s off
f 182/1/1 175/2/1 170/3/1 185/4/1
f 185/4/1 170/3/1 171/5/1 184/6/1
f 188/7/1 184/6/1 171/5/1 178/8/1
f 31/9/1 188/7/1 178/8/1 119/10/1
f 182/1/1 187/11/1 174/12/1 175/2/1
f 174/12/1 187/11/1 189/13/1 172/14/1
f 172/14/1 189/13/1 186/15/1 177/16/1
f 177/16/1 186/15/1 183/17/1 179/18/1
f 179/18/1 183/17/1 180/19/1 169/20/1
f 169/20/1 180/19/1 181/21/1 176/22/1
f 176/22/1 181/21/1 190/23/1 173/24/1
f 173/24/1 190/23/1 13/25/1 103/26/1
s 1
f 1/27/2 2/28/2 3/29/2 4/30/2
f 4/30/3 3/29/3 5/31/3 6/32/3
f 6/32/4 5/31/5 7/33/6 8/34/5
f 9/35/2 10/36/2 3/29/2 2/28/2
f 3/29/3 10/36/3 11/37/3 5/31/3
f 5/31/7 11/37/8 12/38/7 7/33/9
f 13/25/2 14/39/2 15/40/2 16/41/2
f 14/39/2 1/27/2 4/30/2 15/40/2
f 16/41/3 15/40/3 17/42/3 18/43/3
f 15/40/3 4/30/3 6/32/3 17/42/3
f 18/43/8 17/42/10 19/44/11 20/45/10
f 17/42/12 6/32/13 8/34/14 19/44/15
f 21/46/16 22/47/16 23/48/16 24/49/16
f 24/49/3 23/48/3 25/50/3 26/51/3
f 26/51/8 25/50/8 27/52/8 28/53/8
f 32/54/17 185/4/17 184/6/17 30/55/17
f 22/47/18 33/56/19 34/57/2 23/48/20
f 33/56/2 35/58/2 36/59/2 34/57/2
f 23/48/3 34/57/3 37/60/3 25/50/3
f 34/57/3 36/59/3 38/61/3 37/60/3
f 25/50/8 37/60/8 39/62/8 27/52/8
f 37/60/8 38/61/8 40/63/8 39/62/8
f 41/64/2 42/65/2 10/36/2 9/35/2
f 21/46/21 24/49/22 42/65/2 41/64/22
f 10/36/3 42/65/3 43/66/3 11/37/3
f 42/65/3 24/49/3 26/51/3 43/66/3
f 11/37/8 43/66/8 44/67/8 12/38/8
f 43/66/8 26/51/8 28/53/8 44/67/8
f 45/68/23 46/69/23 47/70/23 48/71/23
f 8/34/23 7/33/23 46/69/23 45/68/23
f 46/69/24 49/72/25 50/73/24 47/70/26
f 7/33/27 12/38/27 49/72/27 46/69/27
f 20/45/28 19/44/28 51/74/28 52/75/28
f 52/75/29 51/74/29 53/76/29 54/77/29
f 51/74/30 45/68/31 48/71/32 53/76/31
f 19/44/33 8/34/33 45/68/33 51/74/33
f 28/53/3 27/52/3 55/78/3 56/79/3
f 56/79/34 55/78/34 57/80/34 58/81/34
f 55/78/34 59/82/34 60/83/34 57/80/34
f 27/52/3 39/62/3 59/82/3 55/78/3
f 59/82/34 61/84/34 62/85/34 60/83/34
f 39/62/3 40/63/3 61/84/3 59/82/3
f 49/72/34 63/86/34 64/87/34 50/73/34
f 12/38/3 44/67/3 63/86/3 49/72/3
f 63/86/34 56/79/34 58/81/34 64/87/34
f 44/67/3 28/53/3 56/79/3 63/86/3
f 29/88/35 65/89/35 66/90/35 30/55/35
f 67/91/35 65/89/35 29/88/35 31/92/35
f 30/55/35 66/90/35 68/93/35 32/94/35
f 13/95/36 16/96/36 69/97/36 70/98/36
f 71/99/35 72/100/35 36/101/35 35/102/35
f 32/94/35 68/93/35 71/99/35 35/102/35
f 18/103/36 73/104/36 69/97/36 16/96/36
f 36/101/35 72/100/35 74/105/35 38/106/35
f 18/103/36 20/107/36 75/108/36 73/104/36
f 38/106/35 74/105/35 76/109/35 40/110/35
f 48/111/37 47/112/37 77/113/37 78/114/37
f 47/112/37 50/115/37 79/116/37 77/113/37
f 80/117/37 53/118/37 48/111/37 78/114/37
f 54/119/37 53/118/37 80/117/37 81/120/37
f 82/121/37 58/122/37 57/123/37 83/124/37
f 84/125/37 60/126/37 62/85/37 85/127/37
f 83/124/37 57/123/37 60/126/37 84/125/37
f 86/128/37 64/129/37 58/122/37 82/121/37
f 79/116/37 50/115/37 64/129/37 86/128/37
f 52/130/36 54/131/36 81/132/36 87/133/36
f 87/133/36 75/108/36 20/107/36 52/130/36
f 88/134/35 85/135/35 62/136/35 61/137/35
f 40/110/35 76/109/35 88/134/35 61/137/35
f 89/138/38 90/139/38 91/140/38 92/141/38
f 91/140/39 169/20/39 176/22/39 92/141/39
f 93/142/39 94/143/39 90/139/39 89/138/39
f 95/144/40 94/143/41 93/142/42 96/145/43
f 91/140/38 90/139/38 97/146/38 98/147/38
f 98/147/39 179/18/39 169/20/39 91/140/39
f 99/148/39 97/146/39 90/139/39 94/143/39
f 95/144/44 100/149/45 99/148/46 94/143/45
f 101/150/38 102/151/38 103/26/38 104/152/38
f 89/138/38 92/141/38 102/151/38 101/150/38
f 102/151/39 173/24/39 103/26/39
f 92/141/39 176/22/39 173/24/39 102/151/39
f 105/153/39 101/150/39 104/152/39 106/154/39
f 93/142/39 89/138/39 101/150/39 105/153/39
f 107/155/47 105/153/48 106/154/46 108/156/49
f 96/145/50 93/142/51 105/153/52 107/155/53
f 109/157/54 110/158/54 111/159/54 112/160/54
f 110/158/39 174/12/39 172/14/39 111/159/39
f 113/161/39 109/157/39 112/160/39 114/162/39
f 115/163/46 113/161/46 114/162/46 116/164/46
f 121/165/38 122/166/55 110/158/56 109/157/57
f 121/165/38 123/167/38 124/168/38 122/166/38
f 122/166/58 175/2/58 174/12/58 110/158/58
f 122/166/39 124/168/39 120/169/39 170/3/39 175/2/39
f 125/170/39 121/165/39 109/157/39 113/161/39
f 126/171/39 123/167/39 121/165/39 125/170/39
f 127/172/46 125/170/46 113/161/46 115/163/46
f 128/173/46 126/171/46 125/170/46 127/172/46
f 98/147/38 97/146/38 129/174/38 130/175/38
f 129/174/38 112/160/59 111/159/60 130/175/59
f 130/175/39 177/16/39 179/18/39 98/147/39
f 111/159/61 172/14/61 177/16/61 130/175/61
f 99/148/39 131/176/39 129/174/39 97/146/39
f 114/162/39 112/160/39 129/174/39 131/176/39
f 100/149/46 132/177/46 131/176/46 99/148/46
f 116/164/46 114/162/46 131/176/46 132/177/46
f 133/178/62 134/179/62 135/180/62 136/181/62
f 134/179/62 95/144/62 96/145/62 135/180/62
f 133/178/63 137/182/64 138/183/65 134/179/64
f 134/179/66 138/183/66 100/149/66 95/144/66
f 139/184/67 107/155/67 108/156/67 140/185/67
f 141/186/68 139/184/68 140/185/68 142/187/68
f 136/181/69 135/180/70 139/184/71 141/186/70
f 135/180/72 96/145/72 107/155/72 139/184/72
f 143/188/39 144/189/39 115/163/39 116/164/39
f 145/190/73 146/191/73 144/189/73 143/188/73
f 147/192/73 148/193/73 144/189/73 146/191/73
f 148/193/39 127/172/39 115/163/39 144/189/39
f 149/194/73 150/195/73 148/193/73 147/192/73
f 150/195/39 128/173/39 127/172/39 148/193/39
f 151/196/73 152/197/73 138/183/73 137/182/73
f 152/197/39 132/177/39 100/149/39 138/183/39
f 151/196/73 145/190/73 143/188/73 152/197/73
f 152/197/39 143/188/39 116/164/39 132/177/39
f 117/198/35 153/199/35 154/200/35 118/201/35
f 119/202/35 118/201/35 154/200/35 67/91/35
f 117/198/35 120/203/35 68/93/35 153/199/35
f 70/98/36 155/204/36 104/205/36 103/206/36
f 124/207/35 123/208/35 156/209/35 71/99/35
f 124/207/35 71/99/35 68/93/35 120/203/35
f 104/205/36 155/204/36 157/210/36 106/211/36
f 126/212/35 158/213/35 156/209/35 123/208/35
f 106/211/36 157/210/36 75/108/36 108/214/36
f 126/212/35 128/215/35 76/109/35 158/213/35
f 159/216/37 160/217/37 133/218/37 136/219/37
f 160/217/37 161/220/37 137/221/37 133/218/37
f 162/222/37 159/216/37 136/219/37 141/223/37
f 163/224/37 162/222/37 141/223/37 142/225/37
f 146/226/37 145/227/37 164/228/37 165/229/37
f 149/194/37 147/230/37 166/231/37 167/232/37
f 147/230/37 146/226/37 165/229/37 166/231/37
f 145/227/37 151/233/37 168/234/37 164/228/37
f 168/234/37 151/233/37 137/221/37 161/220/37
f 87/133/36 163/235/36 142/236/36 140/237/36
f 108/214/36 75/108/36 87/133/36 140/237/36
f 150/238/35 149/239/35 167/240/35 88/134/35
f 88/134/35 76/109/35 128/215/35 150/238/35
f 171/5/74 170/3/74 120/169/74 117/198/74
f 178/8/75 118/241/75 119/10/75
f 178/8/39 171/5/39 117/198/39 118/241/39
f 188/7/76 31/9/76 29/242/76
f 181/21/3 180/19/3 2/28/3 1/27/3
f 182/1/3 185/4/3 32/54/3 35/58/3 33/56/3
f 13/25/3 190/23/3 14/39/3
f 186/15/77 189/13/77 21/46/77 41/64/77
f 189/13/3 187/11/3 22/47/3 21/46/3
f 187/11/78 182/1/78 33/56/78 22/47/78
f 180/19/3 183/17/3 9/35/3 2/28/3
f 183/17/3 186/15/3 41/64/3 9/35/3
f 190/23/3 181/21/3 1/27/3 14/39/3
f 184/6/3 188/7/3 29/242/3 30/55/3
